<svg width="60" height="60" fill="none" xmlns="http://www.w3.org/2000/svg"><circle cx="30" cy="30" r="29" stroke="#000" stroke-opacity=".6" stroke-width="2"/><path d="M13.563 29.316V35h-2.296v-9.94h1.82l4.606 5.852V25.06h2.296V35h-1.876l-4.55-5.684Zm18.113 3.668V35H24.69v-9.94h6.86v2.016h-4.564v1.932h3.92v1.862h-3.92v2.114h4.69Zm7.471-7.91h2.114l1.036 3.178 1.036-3.178h2.128l-1.694 4.62 1.008 2.646 2.492-7.28h2.506L45.895 35h-1.988l-1.61-3.892L40.701 35H38.7l-3.864-9.94h2.492l2.506 7.28.98-2.646-1.666-4.62Z" fill="#000" fill-opacity=".6"/></svg>